<?xml version="1.0" encoding="UTF-8"?><svg id="Layer_2" xmlns="http://www.w3.org/2000/svg" xmlns:xlink="http://www.w3.org/1999/xlink" viewBox="0 0 46.8 38.05"><defs><style>.cls-1,.cls-2,.cls-3{fill:none;}.cls-2{stroke:#333;}.cls-2,.cls-3{stroke-linecap:round;stroke-linejoin:round;stroke-width:1.17px;}.cls-3{stroke:#ff6600;}.cls-4{clip-path:url(#clippath);}.cls-5{fill:#ff6600;}.cls-6{fill:#333;}.cls-7{clip-path:url(#clippath-1);}</style><clipPath id="clippath"><rect class="cls-1" x="0" y="0" width="46.8" height="38.05"/></clipPath><clipPath id="clippath-1"><rect class="cls-1" x="0" y="0" width="46.8" height="38.05"/></clipPath></defs><g id="Layer_1-2"><g class="cls-4"><path class="cls-2" d="M25.05,7.45v27.21h13.34l5.04-5.05V7.45m-13.29-2.81h-5.99c-1.04,0-1.89,.85-1.89,1.89v29.04c0,1.05,.85,1.89,1.89,1.89h20.19c1.04,0,1.89-.85,1.89-1.89V6.54c0-1.05-.85-1.89-1.89-1.89h-6.27m-7.93-1.1V7.64c0,.39,.31,.7,.7,.7h.28c.35,0,.65-.26,.69-.61v-.09c.17-1.22,1.21-2.13,2.43-2.13s2.26,.91,2.42,2.13v.09c.06,.35,.35,.61,.7,.61,.39,0,.7-.31,.7-.7V3.55c0-.3-.24-.54-.54-.54h-6.85c-.3,0-.54,.24-.54,.54Z"/></g><polyline class="cls-3" points="31.26 18.21 29.16 20.36 28.15 19.38"/><line class="cls-2" x1="32.84" y1="20.62" x2="40.35" y2="20.62"/><polyline class="cls-3" points="31.26 22.64 29.16 24.8 28.15 23.81"/><line class="cls-2" x1="32.84" y1="25.03" x2="40.35" y2="25.03"/><polyline class="cls-3" points="31.26 27.08 29.16 29.23 28.15 28.25"/><g class="cls-7"><path class="cls-2" d="M31.8,.58h4.44M8.7,15.41h11.24m-2.73,11.59h2.36m.19,3.61H5.73m2.81,0v.36c0,1.66-1.35,3-3,3s-3-1.34-3-3v-.36m0-9.83l-1.64-1.78c-.19-.18-.31-.43-.31-.7v-1.94c0-.53,.43-.95,.96-.95h3.74l3.24-6.2c.64-.85,1.64-1.34,2.7-1.34h8.8M2.53,20.78v9.83m3.2-7.31l4.13,.57c1.04,.15,1.81,1.04,1.81,2.09v1.04H5.73m14.04-7.06h-4.54c-.78,0-1.54-.29-2.12-.81l-1.45-1.33m21.01,11.62h7.69"/><path class="cls-5" d="M10.05,10.21l-1.3,2.49h11.27v-2.99H11.17c-.43,0-.84,.19-1.12,.5"/></g><g><path class="cls-6" d="M28.92,16.22c-.09,0-.16-.03-.23-.1s-.1-.14-.1-.23v-3.98l-.48,.2c-.07,.03-.14,.05-.21,.05-.1,0-.17-.03-.24-.09-.06-.06-.09-.14-.09-.23,0-.07,.02-.13,.05-.19,.04-.06,.09-.1,.16-.12l1.02-.37s.04-.01,.07-.02c.02,0,.04,0,.06,0,.1,0,.18,.03,.24,.09,.06,.06,.09,.14,.09,.24v4.42c0,.09-.03,.17-.1,.23-.06,.07-.15,.1-.24,.1Z"/><path class="cls-6" d="M31.99,16.22c-.31,0-.59-.07-.84-.22-.25-.15-.45-.34-.59-.6s-.22-.53-.22-.85c0-.09,.03-.17,.09-.24,.06-.06,.14-.09,.23-.09s.18,.03,.24,.09c.07,.06,.1,.14,.1,.24,0,.19,.04,.36,.13,.51s.21,.27,.35,.36c.15,.09,.32,.13,.5,.13s.36-.04,.51-.13c.15-.09,.27-.21,.36-.36s.13-.32,.13-.51-.04-.36-.13-.51c-.09-.15-.21-.27-.36-.36-.15-.09-.32-.13-.51-.13h-1.09c-.1,0-.17-.03-.23-.09-.06-.06-.09-.14-.09-.24v-1.76c0-.09,.03-.18,.09-.24,.06-.07,.14-.1,.23-.1h2.18c.09,0,.17,.03,.23,.1s.1,.15,.1,.24-.03,.16-.09,.23c-.06,.07-.14,.1-.24,.1h-1.84v1.1h.76c.32,0,.6,.07,.85,.22s.45,.34,.59,.59c.15,.25,.22,.53,.22,.85s-.07,.6-.22,.85-.34,.45-.59,.6c-.25,.15-.53,.22-.85,.22Z"/><path class="cls-6" d="M35.89,16.22c-.33,0-.61-.1-.84-.3s-.41-.49-.53-.87c-.12-.38-.18-.84-.18-1.37s.06-.99,.18-1.37c.12-.38,.3-.67,.53-.87s.51-.3,.84-.3,.61,.1,.84,.31,.41,.5,.53,.88c.12,.38,.18,.83,.18,1.36s-.06,.98-.18,1.36c-.12,.38-.3,.67-.53,.88s-.51,.31-.84,.31Zm0-.68c.2,0,.37-.08,.5-.24,.13-.16,.23-.39,.29-.67,.06-.28,.1-.6,.1-.96s-.03-.68-.1-.96c-.07-.28-.16-.51-.29-.67-.13-.17-.29-.25-.5-.25s-.36,.08-.5,.24c-.13,.16-.23,.39-.29,.67-.07,.28-.1,.6-.1,.96s.03,.68,.1,.96c.07,.28,.16,.5,.3,.67,.13,.16,.3,.24,.49,.24Z"/><path class="cls-6" d="M39.56,15.25c-.1,0-.17-.03-.24-.09s-.09-.14-.09-.24v-.87h-.87c-.1,0-.17-.03-.24-.1-.06-.07-.09-.15-.09-.24s.03-.17,.09-.24c.06-.06,.14-.09,.24-.09h.87v-.87c0-.09,.03-.17,.1-.23s.14-.1,.23-.1c.1,0,.18,.03,.24,.09,.06,.06,.09,.14,.09,.24v.87h.87c.09,0,.17,.03,.24,.1,.07,.06,.1,.15,.1,.24s-.03,.17-.1,.23-.15,.1-.24,.1h-.87v.87c0,.1-.03,.17-.09,.24-.06,.06-.14,.09-.24,.09Z"/></g></g></svg>