<?xml version="1.0" encoding="UTF-8"?><svg id="Layer_2" xmlns="http://www.w3.org/2000/svg" xmlns:xlink="http://www.w3.org/1999/xlink" viewBox="0 0 46.8 40.37"><defs><style>.cls-1,.cls-2{fill:none;}.cls-3{clip-path:url(#clippath);}.cls-4{fill:#ff6600;}.cls-2{stroke:#333;stroke-linecap:round;stroke-linejoin:round;stroke-width:1.13px;}</style><clipPath id="clippath"><rect class="cls-1" x="0" y="0" width="46.8" height="40.37"/></clipPath></defs><g id="Layer_1-2"><g class="cls-3"><path class="cls-2" d="M18.78,25.16h3.05m7.4,2.3H11.38m1.81,0v.23c0,1.06-.87,1.91-1.94,1.91s-1.94-.85-1.94-1.91v-.23m18.11,0v.23c0,1.06,.87,1.91,1.94,1.91s1.94-.85,1.94-1.91v-.23m-21.98-6.26l-1.06-1.13c-.12-.11-.2-.28-.2-.45v-1.23c0-.34,.28-.61,.62-.61h2.41l2.09-3.95c.41-.54,1.06-.85,1.74-.85h10.77c.68,0,1.33,.32,1.74,.85l2.09,3.95h2.41c.34,0,.62,.27,.62,.61v1.23c0,.17-.07,.33-.2,.45l-1.06,1.13v6.26m-21.98-6.26v6.26m2.06-4.66l2.66,.36c.67,.1,1.17,.66,1.17,1.33v.66h-3.83m17.85,0h-3.83v-.66c0-.67,.5-1.23,1.17-1.33l2.66-.36m-3.58-3.5l-.94,.85c-.37,.34-.86,.52-1.36,.52h-5.85c-.5,0-.99-.19-1.36-.52l-.94-.85M.56,9.48H42.79m-.2,26.73l3.51,3.46m-2.67-5.75l2.81-2.77-11.99-3.17,3.21,11.83,2.81-2.77M15.3,5.06c0-.22-.18-.39-.4-.39s-.4,.18-.4,.39,.18,.39,.4,.39,.4-.17,.4-.39Zm-4.53,0c0-.22-.18-.39-.4-.39s-.4,.18-.4,.39,.18,.39,.4,.39,.4-.17,.4-.39Zm-4.53,0c0-.22-.18-.39-.4-.39s-.4,.18-.4,.39,.18,.39,.4,.39,.4-.17,.4-.39Zm27.77,29.56H3.46c-1.6,0-2.9-1.28-2.9-2.86V2.8C.56,1.57,1.58,.56,2.83,.56H40.52c1.25,0,2.27,1,2.27,2.24V28.18"/><path class="cls-4" d="M24.82,14.4H15.75c-.13,0-.26,.05-.35,.14l-1.37,2.62h12.51l-1.37-2.62c-.09-.09-.22-.14-.35-.14"/></g></g></svg>