<?xml version="1.0" encoding="UTF-8"?><svg id="Layer_2" xmlns="http://www.w3.org/2000/svg" xmlns:xlink="http://www.w3.org/1999/xlink" viewBox="0 0 46.8 40.89"><defs><style>.cls-1,.cls-2{fill:none;}.cls-3{clip-path:url(#clippath);}.cls-4{fill:#ff6600;}.cls-2{stroke:#333;stroke-linecap:round;stroke-linejoin:round;stroke-width:1.13px;}</style><clipPath id="clippath"><rect class="cls-1" width="46.8" height="40.89"/></clipPath></defs><g id="Layer_1-2"><g class="cls-3"><path class="cls-2" d="M21.86,13h3.07m7.46,2.35H14.4m1.83,0v.24c0,1.08-.87,1.95-1.95,1.95s-1.95-.87-1.95-1.95v-.24m18.25,0v.24c0,1.08,.87,1.95,1.95,1.95s1.95-.87,1.95-1.95v-.24M12.32,8.96l-1.07-1.16c-.13-.12-.2-.28-.2-.45v-1.26c0-.34,.28-.62,.62-.62h2.43l2.1-4.03c.42-.55,1.07-.87,1.76-.87h10.86c.69,0,1.34,.32,1.76,.87l2.1,4.03h2.43c.34,0,.62,.28,.62,.62v1.26c0,.17-.07,.34-.2,.45l-1.06,1.16v6.39M12.32,8.96v6.39m2.08-4.75l2.68,.37c.67,.1,1.18,.68,1.18,1.36v.68h-3.86m18,0h-3.86v-.68c0-.68,.5-1.26,1.18-1.36l2.68-.37"/><path class="cls-4" d="M28.84,2.47h-10.88c-.06,0-.11,.02-.16,.05l-1.53,2.94h14.27l-1.53-2.94s-.1-.05-.16-.05"/><path class="cls-2" d="M44.58,21.31l1.25-9.58c.09-.73-.42-1.42-1.15-1.55-.74-.14-1.42,.34-1.54,1.07l-1.52,9.38-1.34,1.59m-5.97-.94c-2.33,.56-5.15,.9-6.99,3.84-.89,1.42-1.54,3.22-1.7,4.96v10.23m5.42-13.4c2.07-1.88,5.27-2.41,7.83-1.25,.23,.11,.47,.2,.72,.26,1.75,.35,2.08-1.13,2.6-2.23,.46-1,1.43-1.78,2.52-2.3,.85-.41,1.78,.39,1.47,1.29-.55,1.64-1.22,3.24-2.01,4.78-.43,.85-.91,1.71-1.62,2.35-1.38,1.26-3.37,1.51-5.19,1.9-1.83,.39-3.82,1.13-4.6,2.82v5.52m7.53-29l-.79-.16c-.83-.16-1.62,.36-1.77,1.19-.43,2.42-.75,4.66-1.12,6.63l-1.1,1.54m7.96-9.68l-1.47-.29c-.83-.16-1.62,.37-1.77,1.19-.34,1.94-1.13,6.52-1.44,8.29l-1.11,1.42m-35.48,.13L.96,11.74c-.08-.73,.43-1.42,1.15-1.55,.74-.14,1.42,.34,1.54,1.07l1.52,9.38,1.34,1.59m5.97-.94c2.33,.56,5.15,.9,6.99,3.84,.89,1.42,1.54,3.22,1.7,4.96v10.23m-5.42-13.4c-2.07-1.88-5.27-2.41-7.83-1.25-.23,.11-.47,.2-.72,.26-1.75,.35-2.09-1.13-2.6-2.23-.46-1-1.43-1.78-2.52-2.3-.85-.41-1.78,.39-1.48,1.29,.55,1.64,1.22,3.24,2.01,4.78,.43,.85,.91,1.71,1.62,2.35,1.38,1.26,3.36,1.51,5.19,1.9,1.83,.39,3.82,1.13,4.6,2.82v5.52M6.51,11.05l.79-.16c.83-.16,1.62,.36,1.77,1.19,.43,2.42,.75,4.66,1.12,6.63l1.1,1.54M3.33,10.57l1.47-.29c.83-.16,1.62,.37,1.77,1.19,.34,1.94,1.13,6.52,1.44,8.29l1.11,1.42"/></g></g></svg>