<?xml version="1.0" encoding="UTF-8"?><svg id="Layer_2" xmlns="http://www.w3.org/2000/svg" xmlns:xlink="http://www.w3.org/1999/xlink" viewBox="0 0 34.24 41.98"><defs><style>.cls-1,.cls-2,.cls-3{fill:none;}.cls-4{clip-path:url(#clippath);}.cls-5{fill:#ff6600;}.cls-2{stroke:#333;}.cls-2,.cls-3{stroke-linecap:round;stroke-linejoin:round;stroke-width:1.13px;}.cls-3{stroke:#ff6600;}.cls-6{clip-path:url(#clippath-1);}</style><clipPath id="clippath"><rect class="cls-1" width="34.24" height="41.98"/></clipPath><clipPath id="clippath-1"><rect class="cls-1" width="34.24" height="41.98"/></clipPath></defs><g id="Layer_1-2"><g class="cls-4"><path class="cls-2" d="M33.68,35.05c0-3.52-2.85-6.37-6.37-6.37s-6.37,2.85-6.37,6.37,2.85,6.37,6.37,6.37,6.37-2.85,6.37-6.37ZM9.76,11.83v.55c0,.55-.44,.99-.99,.99h-.55c-.55,0-.99-.44-.99-.99v-4.19c0-.25-.13-.48-.35-.6l-.3-.17c-.1-.03-.16-.12-.16-.23v-.81c0-.13,.11-.24,.24-.24h.79c.33,0,.63-.18,.78-.47l1.14-2.1c.22-.41,.66-.67,1.12-.67h6.89c.47,0,.9,.26,1.12,.67l1.14,2.1c.16,.29,.46,.47,.79,.47h.78c.13,0,.24,.11,.24,.24v.81c0,.1-.06,.19-.16,.23l-.31,.17c-.22,.12-.35,.35-.35,.6v4.19c0,.55-.44,.99-.99,.99h-.55c-.55,0-.99-.44-.99-.99v-.55H9.76Zm.85,22.09H3.26m0-7.54H24.51M3.26,23H24.51M3.26,19.62H24.51M3.26,16.25H24.51m-5.86,21.07H.57V.57H27.31V26.38"/></g><polyline class="cls-3" points="23.7 35.02 26.27 37.32 29.98 32.78"/><g class="cls-6"><path class="cls-2" d="M30.7,19.55h2.98m-1.49,3.16v1.42m0-1.42h0c.82,0,1.49-.67,1.49-1.49V8c0-.53-.43-.95-.95-.95h-1.07c-.53,0-.95,.43-.95,.95v13.22c0,.82,.67,1.49,1.49,1.49Z"/><path class="cls-5" d="M18.07,6.54l-1-1.82h-6.27l-1,1.83s-.02,.03-.03,.05h8.33s-.03-.04-.03-.06"/></g></g></svg>