<?xml version="1.0" encoding="UTF-8"?><svg id="Layer_2" xmlns="http://www.w3.org/2000/svg" viewBox="0 0 121.87 113.6"><defs><style>.cls-1{fill:#ff6600;}.cls-2{fill:#333;}</style></defs><g id="Layer_1-2"><g id="Layer_1-2"><g><path class="cls-2" d="M92.75,113.6c-5.25,0-9.57-4.06-9.86-9.19H25.1c-.3,5.12-4.61,9.19-9.86,9.19s-9.86-4.4-9.86-9.78v-27.26l-4.11-4.4c-.76-.72-1.27-1.82-1.27-3.01v-5.29c0-2.33,1.9-4.19,4.23-4.19H13.59l8.47-16.09c2.2-2.92,5.46-4.53,8.89-4.53h46.1c3.39,0,6.69,1.61,8.72,4.28l8.64,16.34h9.36c2.33,0,4.23,1.86,4.23,4.19v5.29c0,1.14-.51,2.29-1.35,3.09l-4.02,4.32v27.26c0,5.42-4.44,9.78-9.86,9.78Zm-6.69-9.19c.3,3.39,3.17,6.01,6.69,6.01s6.69-2.96,6.69-6.6v-27.85c0-.38,.17-.8,.42-1.06l4.53-4.87c.3-.3,.42-.55,.42-.85v-5.29c0-.55-.47-1.02-1.06-1.02h-10.33c-.59,0-1.14-.34-1.4-.85l-8.93-16.93c-1.31-1.69-3.64-2.84-6.05-2.84H30.94c-2.41,0-4.74,1.14-6.22,3.05l-8.81,16.72c-.3,.51-.8,.85-1.4,.85H4.23c-.59,0-1.06,.47-1.06,1.02v5.29c0,.3,.13,.55,.34,.76l4.61,4.95h.04s.21,.34,.25,.51c.08,.17,.13,.34,.13,.55h0v27.9c0,3.64,3.01,6.6,6.69,6.6s6.39-2.67,6.69-6.01h-6.14c-.89,0-1.61-.72-1.61-1.61s.72-1.61,1.61-1.61H92.2c.89,0,1.61,.72,1.61,1.61s-.72,1.61-1.61,1.61h-6.14v-.04Zm6.14-9.86h-16.38c-.89,0-1.61-.72-1.61-1.61v-2.84c0-3.64,2.75-6.77,6.35-7.28l11.39-1.57c.93-.13,1.65,.51,1.78,1.35,.13,.89-.51,1.65-1.35,1.78l-11.39,1.57c-2.07,.3-3.64,2.07-3.64,4.15v1.27h14.77c.89,0,1.61,.72,1.61,1.61s-.72,1.61-1.61,1.61l.08-.04Zm-31.71,0h-13.04c-.89,0-1.61-.72-1.61-1.61s.72-1.61,1.61-1.61h13.04c.89,0,1.61,.72,1.61,1.61s-.72,1.61-1.61,1.61Zm-28.36,0H15.79c-.89,0-1.61-.72-1.61-1.61s.72-1.61,1.61-1.61h14.82v-1.27c0-2.07-1.57-3.85-3.64-4.15l-11.39-1.57c-.89-.13-1.48-.93-1.35-1.78s.89-1.48,1.78-1.35l11.39,1.57c3.64,.51,6.35,3.64,6.35,7.28v2.84c0,.89-.72,1.61-1.61,1.61v.04Zm34.88-19.26h-25.02c-2.54,0-5-.93-6.9-2.67l-4.02-3.64c-.63-.59-.72-1.61-.13-2.24s1.61-.68,2.24-.13l4.02,3.64c1.31,1.19,3.01,1.82,4.78,1.82h25.02c1.78,0,3.47-.63,4.78-1.82l4.02-3.64c.68-.59,1.65-.55,2.24,.13,.59,.63,.55,1.65-.13,2.24l-4.02,3.64c-1.9,1.69-4.36,2.67-6.9,2.67Z"/><path class="cls-1" d="M77.59,45.36H30.44c-1.02,0-1.99,.42-2.67,1.14l-6.14,11.77H86.36l-6.14-11.77c-.68-.72-1.65-1.14-2.62-1.14"/><path class="cls-2" d="M96.64,46.51c-.55,0-1.1-.3-1.35-.8l-4.61-7.92c-.25-.42-.3-.97-.08-1.44l4.61-10.33c.17-.38,.51-.68,.89-.85,.38-.17,.85-.13,1.23,0l11.73,5.33c.63,.3,1.02,.97,.93,1.65l-1.31,10.29c-.08,.63-.55,1.19-1.19,1.35l-10.37,2.62s-.25,.04-.38,.04l-.08,.04Zm-2.84-9.61l3.6,6.18,8.17-2.07,1.02-8.04-9.19-4.19-3.64,8.13h.04Zm-17.31-8.47c-.55,0-1.1-.3-1.35-.8l-6.35-10.96c-.25-.42-.3-.97-.08-1.44L75.05,.96c.17-.38,.51-.68,.89-.85,.38-.17,.85-.13,1.23,0l16.17,7.37c.63,.3,1.02,.97,.93,1.65l-1.82,14.18c-.08,.63-.55,1.19-1.19,1.35l-14.35,3.64s-.25,.04-.38,.04l-.04,.08Zm-4.57-12.61l5.33,9.19,12.15-3.09,1.52-11.98-13.63-6.22-5.38,12.06v.04Zm39.62,8.72c-.42,0-.8-.17-1.14-.47-.63-.63-.59-1.61,0-2.24l8.76-8.68c.63-.59,1.61-.59,2.24,0,.63,.63,.59,1.61,0,2.24l-8.76,8.68c-.3,.3-.72,.47-1.1,.47Zm-11.34,0c-.42,0-.8-.17-1.14-.47-.63-.63-.59-1.61,0-2.24L116.92,4.13c.63-.59,1.61-.59,2.24,0,.63,.63,.59,1.61,0,2.24l-17.82,17.69c-.3,.3-.72,.47-1.1,.47h-.04Zm2.5-12.06c-.42,0-.8-.17-1.14-.47-.63-.63-.63-1.61,0-2.24l5.67-5.63c.63-.63,1.61-.63,2.24,0,.63,.63,.63,1.61,0,2.24l-5.67,5.63c-.3,.3-.72,.47-1.1,.47Z"/></g></g></g></svg>