<?xml version="1.0" encoding="UTF-8"?><svg id="Layer_2" xmlns="http://www.w3.org/2000/svg" viewBox="0 0 118.59 113.6"><defs><style>.cls-1{fill:#ff6600;}.cls-2{fill:#333;}</style></defs><g id="Layer_1-2"><g id="Layer_1-2"><g><path class="cls-2" d="M59.25,113.6c-9.71,0-17.66-7.7-18.07-17.33-14.86-2.96-28.89-9.59-40.63-19.26-.66-.54-.74-1.52-.21-2.18,.54-.66,1.52-.74,2.18-.21,11.24,9.26,24.61,15.64,38.81,18.52,1.15-8.85,8.77-15.72,17.95-15.72s16.79,6.87,17.95,15.72c14.2-2.88,27.58-9.26,38.81-18.52,.66-.54,1.65-.45,2.18,.21,.54,.66,.45,1.65-.21,2.18-11.77,9.67-25.77,16.3-40.63,19.26-.41,9.63-8.36,17.33-18.07,17.33h-.08Zm-14.98-18.48v.41c0,8.27,6.75,14.98,15.02,14.98s15.02-6.71,15.02-14.98v-.49c-.29-8.03-6.91-14.49-15.02-14.49s-14.74,6.46-14.98,14.49v.08h-.04Zm14.41,7.29c-.37,0-.78-.16-1.07-.45-.29-.29-6.3-6.3-6.3-6.3l2.18-2.18,5.19,5.19,8.03-8.03c.62-.62,1.56-.62,2.18,0s.62,1.56,0,2.18l-9.14,9.14c-.29,.29-.7,.45-1.07,.45Zm36.76-32.06c-4.9,0-8.93-3.83-9.26-8.68H32.33c-.33,4.82-4.36,8.68-9.26,8.68s-9.3-4.16-9.3-9.26v-25.68l-3.83-4.16c-.74-.66-1.19-1.73-1.19-2.84v-4.98c0-2.22,1.81-3.99,3.99-3.99h8.68l7.9-15.15c2.06-2.76,5.15-4.28,8.36-4.28h43.05c3.21,0,6.26,1.52,8.19,4.07l8.03,15.35h8.68c2.22,0,3.99,1.81,3.99,3.99v4.98c0,1.11-.45,2.18-1.28,2.92l-3.75,4.03v25.68c0,5.1-4.16,9.26-9.26,9.26l.08,.04Zm-6.17-8.68c.29,3.13,2.96,5.6,6.17,5.6,3.42,0,6.17-2.76,6.17-6.17v-26.26c0-.37,.16-.74,.41-1.03l4.24-4.57c.29-.25,.37-.49,.37-.74v-4.98c0-.49-.41-.91-.91-.91h-9.63c-.58,0-1.11-.33-1.36-.82l-8.36-15.97c-1.19-1.56-3.38-2.63-5.6-2.63H37.73c-2.22,0-4.4,1.07-5.76,2.84l-8.19,15.76c-.25,.49-.78,.82-1.36,.82H12.78c-.49,0-.91,.41-.91,.91v4.98c0,.25,.12,.49,.29,.66l4.28,4.65,.08,.08h0s.16,.21,.21,.33c.08,.21,.12,.41,.12,.62v26.26c0,3.42,2.8,6.17,6.22,6.17,3.21,0,5.84-2.47,6.17-5.6h-5.68c-.86,0-1.56-.7-1.56-1.56s.7-1.56,1.56-1.56H94.94c.86,0,1.56,.7,1.56,1.56s-.7,1.56-1.56,1.56h-5.68Zm5.68-9.3h-15.31c-.86,0-1.56-.7-1.56-1.56v-2.68c0-3.46,2.55-6.42,5.97-6.91l10.66-1.44c.82-.12,1.61,.49,1.73,1.32,.12,.86-.49,1.61-1.32,1.73l-10.62,1.44c-1.89,.29-3.33,1.93-3.33,3.87v1.15h13.75c.86,0,1.56,.7,1.56,1.56s-.7,1.56-1.56,1.56l.04-.04Zm-29.59,0h-12.18c-.86,0-1.56-.7-1.56-1.56s.7-1.56,1.56-1.56h12.18c.86,0,1.56,.7,1.56,1.56s-.7,1.56-1.56,1.56Zm-26.47,0h-15.31c-.86,0-1.56-.7-1.56-1.56s.7-1.56,1.56-1.56h13.75v-1.15c0-1.93-1.4-3.58-3.33-3.87l-10.62-1.44c-.86-.12-1.44-.91-1.32-1.73s.86-1.44,1.73-1.32l10.62,1.44c3.5,.49,6.01,3.42,6.01,6.91v2.68c0,.86-.7,1.56-1.56,1.56l.04,.04Zm32.56-18.15h-23.38c-2.43,0-4.73-.91-6.5-2.51l-3.75-3.42c-.62-.58-.66-1.56-.08-2.18,.58-.62,1.56-.66,2.18-.08l3.75,3.42c1.19,1.11,2.76,1.73,4.4,1.73h23.38c1.65,0,3.21-.62,4.4-1.73l3.75-3.42c.62-.58,1.61-.54,2.18,.08,.58,.62,.54,1.61-.08,2.18l-3.75,3.42c-1.77,1.65-4.07,2.51-6.5,2.51Zm15.89-11.69H31.22c-.86,0-1.56-.7-1.56-1.56s.7-1.56,1.56-1.56h56.06c.86,0,1.56,.7,1.56,1.56s-.7,1.56-1.56,1.56h.04Z"/><path class="cls-1" d="M81.19,5.93H37.31c-.95,0-1.81,.41-2.47,1.07l-3.54,6.79h55.85l-3.54-6.79c-.62-.66-1.52-1.07-2.47-1.07"/></g></g></g></svg>