<?xml version="1.0" encoding="UTF-8"?><svg id="Layer_2" xmlns="http://www.w3.org/2000/svg" viewBox="0 0 101.02 113.6"><defs><style>.cls-1{fill:#ff6600;}.cls-2{fill:#333;}</style></defs><g id="Layer_1-2"><g id="Layer_1-2"><g><path class="cls-2" d="M50.65,113.6c-2.96,0-5.92-.24-8.84-.67l-1.81-.28c-3.94-.63-6.82-3.98-6.82-8.01V55.97c0-6.63,4.69-12.46,11.2-13.85,4.18-.87,8.44-.87,12.62,0h0c6.47,1.38,11.2,7.18,11.2,13.85v48.68c0,4.02-2.88,7.38-6.82,8.01l-1.81,.28c-2.96,.47-5.92,.67-8.88,.67h-.04Zm0-69.19c-1.89,0-3.79,.2-5.68,.59-5.13,1.1-8.84,5.68-8.84,10.93v48.68c0,2.56,1.81,4.69,4.34,5.09l1.81,.28c5.56,.87,11.24,.87,16.8,0l1.81-.28c2.52-.39,4.34-2.52,4.34-5.09V55.97c0-5.25-3.71-9.86-8.84-10.93h0c-1.89-.39-3.79-.59-5.68-.59l-.08-.04Zm48.83,12.07h-24.54c-.83,0-1.5-.67-1.5-1.5s.67-1.5,1.5-1.5h24.54c.83,0,1.5,.67,1.5,1.5s-.67,1.5-1.5,1.5Zm-73.45,0H1.5c-.83,0-1.5-.67-1.5-1.5s.67-1.5,1.5-1.5H25.99c.83,0,1.5,.67,1.5,1.5s-.67,1.5-1.5,1.5h.04Zm59.13-5.01c-.39,0-.75-.16-1.03-.43-.59-.59-.59-1.5,0-2.09l1.5-1.5h-10.65c-.83,0-1.5-.67-1.5-1.5s.67-1.5,1.5-1.5h10.65l-1.5-1.5c-.59-.59-.59-1.5,0-2.09s1.5-.59,2.09,0l4.02,4.02s.24,.28,.32,.47,.12,.39,.12,.59-.04,.39-.12,.59c-.08,.16-.16,.32-.32,.47l-4.02,4.02c-.28,.28-.67,.43-1.07,.43Zm-69.31,0c-.39,0-.75-.16-1.07-.43l-4.02-4.02h0s-.24-.32-.28-.47c-.08-.16-.12-.32-.12-.51h0v-.08h0s.04-.36,.12-.51,.16-.32,.28-.43h0l4.02-4.06c.59-.59,1.5-.59,2.09,0s.59,1.5,0,2.09l-1.5,1.5h10.65c.83,0,1.5,.67,1.5,1.5s-.67,1.5-1.5,1.5H15.34l1.5,1.5c.59,.59,.59,1.5,0,2.09-.28,.28-.67,.43-1.03,.43l.04-.08Zm83.62-13.06h-22.96c-10.1,0-18.34-8.24-18.34-18.38V1.5c0-.83,.67-1.5,1.5-1.5s1.5,.67,1.5,1.5V20.04c0,8.48,6.9,15.42,15.38,15.42h22.96c.83,0,1.5,.67,1.5,1.5s-.67,1.5-1.5,1.5l-.04-.04Zm-48.83,0c-.83,0-1.5-.67-1.5-1.5v-10.65l-1.5,1.5c-.59,.59-1.5,.59-2.09,0s-.59-1.5,0-2.09l4.02-4.02c.28-.28,.63-.43,1.03-.43h0c.36,0,.71,.16,.95,.36h0l.08,.08,4.02,4.02c.59,.59,.59,1.5,0,2.09s-1.5,.59-2.09,0l-1.5-1.5v10.65c0,.83-.67,1.5-1.5,1.5h.08Zm-25.88,0H1.5c-.83,0-1.5-.67-1.5-1.5s.67-1.5,1.5-1.5H24.77c8.48,0,15.38-6.9,15.38-15.42V1.5c0-.83,.67-1.5,1.5-1.5s1.5,.67,1.5,1.5V20.04c0,10.14-8.2,18.38-18.34,18.38h-.04Z"/><path class="cls-1" d="M40.12,95.42c-.08,.75-.16,1.14-.16,1.14v6.07c0,.91,.63,1.7,1.54,1.85,6,1.14,12.27,1.14,18.22,0,.91-.16,1.54-.95,1.54-1.89v-6.07s-.04-.43-.16-1.14c-6.86,1.54-14.16,1.54-21.02,0"/><path class="cls-2" d="M58.54,86.5c-.83,0-1.5-.67-1.5-1.5v-4.06l.87-9.94,.91-5.09c.08-.51-.24-1.03-.71-1.14-1.62-.47-4.26-1.07-7.46-1.07-3.43,0-5.96,.55-7.49,1.03-.47,.16-.75,.63-.67,1.14l.91,5.13,.87,9.7v4.3c0,.83-.67,1.5-1.46,1.5s-1.5-.67-1.5-1.5v-4.18l-.83-9.47-.87-5.01c-.36-1.97,.83-3.91,2.72-4.5,1.74-.51,4.54-1.14,8.36-1.14,3.55,0,6.47,.63,8.28,1.18,1.93,.55,3.16,2.52,2.8,4.5l-.87,4.97-.83,9.66v3.94c0,.83-.67,1.5-1.46,1.5l-.08,.04Zm12.43-12.78c-.83,0-1.5-.67-1.5-1.5v-1.81c0-.51-.28-.99-.75-1.26l-3.27-1.85c-.71-.39-.99-1.3-.55-2.01,.39-.71,1.3-.95,2.01-.55l3.27,1.85c1.38,.79,2.25,2.25,2.25,3.83v1.81c0,.83-.67,1.5-1.5,1.5h.04Zm-40.59,0c-.83,0-1.5-.67-1.5-1.5v-1.81c0-1.58,.87-3.04,2.25-3.83l3.27-1.85c.71-.39,1.62-.16,2.01,.55s.16,1.62-.55,2.01l-3.27,1.85c-.47,.24-.75,.75-.75,1.26v1.81c0,.83-.67,1.5-1.5,1.5h.04Zm35.11-19.33h-4.54c-3.47,0-6.31-2.84-6.31-6.31v-3.67c0-.83,.67-1.5,1.5-1.5s1.5,.67,1.5,1.5v3.67c0,1.85,1.5,3.35,3.35,3.35h4.54c.83,0,1.5,.67,1.5,1.5s-.67,1.5-1.5,1.5l-.04-.04Zm-25.05,0h-4.54c-.83,0-1.5-.67-1.5-1.5s.67-1.5,1.5-1.5h4.54c1.85,0,3.35-1.5,3.35-3.35v-3.67c0-.83,.67-1.5,1.5-1.5s1.5,.67,1.5,1.5v3.67c0,3.47-2.84,6.31-6.31,6.31l-.04,.04Z"/><path class="cls-1" d="M54.75,71.08v-.43l.55-2.96c-1.3-.24-2.88-.43-4.69-.43h0c-1.89,0-3.47,.16-4.69,.39l.55,3.12v.43l.51,5.05,.16,1.58h.08c2.21-.95,4.73-.99,6.98-.12h.04l.2-2.13,.39-4.5h-.08Z"/></g></g></g></svg>