<?xml version="1.0" encoding="UTF-8"?><svg id="Layer_2" xmlns="http://www.w3.org/2000/svg" viewBox="0 0 123.78 113.6"><defs><style>.cls-1{fill:#ff6600;}.cls-2{fill:#333;}</style></defs><g id="Layer_1-2"><g id="Layer_1-2"><g><path class="cls-2" d="M18.91,113.6H1.63c-.9,0-1.63-.73-1.63-1.63s.73-1.63,1.63-1.63H18.91c.99,0,1.8-.82,1.8-1.8v-44.38c0-.99-.82-1.76-1.8-1.76H1.63c-.9,0-1.63-.73-1.63-1.63s.73-1.63,1.63-1.63H18.91c2.75,0,5.03,2.23,5.03,4.98v6.53c13.45-8.46,29.09-7.91,44.26,1.59h0s6.14,2.62,13.45,.43c4.6-1.42,9.54-.47,13.1,2.45h0l10.53-4.21c2.15-.86,4.17-1.42,6.19-1.8,2.58-.47,4.6-.47,6.06,0,3.39,1.07,5.84,4,6.23,7.43,.26,2.54-.99,4.94-3.18,6.19l-31.8,17.83c-6.87,3.61-14.52,5.33-22.13,4.86-23.16-1.33-38.24-2.71-42.67-3.14v6.27c0,2.75-2.23,5.03-5.03,5.03l-.04,.04Zm5.03-14.52c3.95,.39,19.16,1.8,42.84,3.18,7,.34,14.09-1.16,20.41-4.47l31.75-17.83c1.07-.6,1.72-1.8,1.55-3.01-.26-2.15-1.8-4.04-4-4.73-.52-.17-1.8-.39-4.51,.09-1.8,.3-3.61,.86-5.54,1.63l-10.01,4c.47,2.32-.47,4.77-2.54,6.19l-2.15,1.46c-5.89,4-12.72,6.1-19.85,6.1h-7.09c-.9,0-1.63-.73-1.63-1.63s.73-1.63,1.63-1.63h7.09c6.44,0,12.68-1.89,18-5.54l2.15-1.46c1.12-.77,1.55-2.23,.99-3.39-2.88-2.58-6.83-3.39-10.57-2.23-8.59,2.62-15.6-.52-15.9-.69-14.91-9.32-29.99-9.45-42.75-.56v24.53s.13,0,.13,0Zm58.61-36.39c-17.32,0-31.41-14.05-31.41-31.37,0-17.32,14.05-31.32,31.37-31.32,17.32,0,31.41,14.05,31.41,31.37,0,17.32-14.09,31.37-31.41,31.37l.04-.04Zm0-59.47c-15.55,0-28.19,12.63-28.19,28.14,0,15.51,12.63,28.14,28.19,28.14,15.55,0,28.19-12.63,28.19-28.14,0-15.51-12.68-28.14-28.23-28.14h.04Z"/><rect class="cls-1" x="5.97" y="66.34" width="10.05" height="41.33"/><path class="cls-2" d="M82.88,46.4c-.9,0-1.63-.73-1.63-1.63v-12.37s-12.37,0-12.37,0c-.9,0-1.63-.73-1.63-1.63s.73-1.63,1.63-1.63h12.37s0-12.29,0-12.29c0-.9,.73-1.63,1.63-1.63s1.63,.73,1.63,1.63v12.37s12.37,0,12.37,0c.9,0,1.63,.73,1.63,1.63s-.73,1.63-1.63,1.63h-12.37s0,12.37,0,12.37c0,.9-.73,1.63-1.63,1.63v-.09Z"/></g></g></g></svg>