<?xml version="1.0" encoding="UTF-8"?><svg id="Layer_2" xmlns="http://www.w3.org/2000/svg" viewBox="0 0 115.53 113.6"><defs><style>.cls-1{fill:#ff6600;}.cls-2{fill:#333;}</style></defs><g id="Layer_1-2"><g id="Layer_1-2"><g><g><path class="cls-2" d="M73.13,113.6h-31.65C18.21,113.6,0,88.65,0,56.8S19.01,0,42.4,0h30.73c23.39,0,42.4,25.47,42.4,56.8s-19.01,56.8-42.4,56.8ZM42.4,3.01C20.7,3.01,3.01,27.12,3.01,56.8s16.89,53.79,38.47,53.79h31.65c21.7,0,39.39-24.11,39.39-53.79S94.87,3.01,73.13,3.01,33.74,27.12,33.74,56.8c0,20.14,8.14,38.43,21.26,47.74,.68,.48,.84,1.4,.36,2.09s-1.4,.84-2.09,.36c-13.88-9.87-22.5-29.12-22.5-50.18-.04-24.95,12.03-46.17,28.72-53.79h-17.09Zm30.73,87.61c-14,0-25.39-15.16-25.39-33.82s11.39-33.82,25.39-33.82,25.39,15.16,25.39,33.82-11.39,33.82-25.39,33.82Zm0-64.62c-12.36,0-22.38,13.84-22.38,30.81s10.07,30.81,22.38,30.81,22.38-13.84,22.38-30.81-10.03-30.81-22.38-30.81Zm0,42.04c-4.81,0-8.7-5.05-8.7-11.23s3.89-11.23,8.7-11.23,8.7,5.05,8.7,11.23-3.89,11.23-8.7,11.23Zm0-19.46c-3.09,0-5.7,3.77-5.7,8.22s2.61,8.22,5.7,8.22,5.7-3.77,5.7-8.22-2.61-8.22-5.7-8.22Z"/><path class="cls-1" d="M5.98,56.8c0,14,3.81,27,10.71,36.62,6.34,8.83,14.68,13.84,23.55,14.16-11.87-11.11-19.5-29.52-19.5-50.78S28.8,17.25,41,6.02C21.58,6.86,5.98,29.28,5.98,56.8"/><path class="cls-1" d="M45.53,109.75l-5.34-.2c-9.51-.36-18.45-5.66-25.11-15-7.14-9.95-11.07-23.39-11.07-37.79C3.97,28.08,20.22,4.89,40.92,4.01l5.5-.24-4.05,3.73c-12.27,11.23-19.58,29.68-19.58,49.3s7.06,38.27,18.85,49.3c0,0,3.89,3.65,3.89,3.65ZM35.34,8.99C19.82,13.56,7.98,33.5,7.98,56.8c0,13.56,3.65,26.15,10.31,35.46,4.57,6.38,10.27,10.67,16.41,12.44-10.19-11.99-15.97-29.08-15.97-47.86S24.87,21.06,35.34,8.99Z"/></g><path class="cls-2" d="M73.41,85.6c-1.28,0-2.33-1.04-2.33-2.33v-16.89c0-1.28,1.04-2.33,2.33-2.33s2.33,1.04,2.33,2.33v16.89c0,1.28-1.04,2.33-2.33,2.33Zm18.45-26.44h-11.47c-1.28,0-2.33-1.04-2.33-2.33s1.04-2.33,2.33-2.33h11.47c1.28,0,2.33,1.04,2.33,2.33s-1.04,2.33-2.33,2.33Zm-25.43,0h-11.47c-1.28,0-2.33-1.04-2.33-2.33s1.04-2.33,2.33-2.33h11.47c1.28,0,2.33,1.04,2.33,2.33s-1.04,2.33-2.33,2.33Zm6.98-9.59c-1.28,0-2.33-1.04-2.33-2.33V30.33c0-1.28,1.04-2.33,2.33-2.33s2.33,1.04,2.33,2.33v16.89c0,1.28-1.04,2.33-2.33,2.33v.04Z"/></g></g></g></svg>