<?xml version="1.0" encoding="UTF-8"?><svg id="Layer_2" xmlns="http://www.w3.org/2000/svg" viewBox="0 0 113.56 113.6"><defs><style>.cls-1{fill:#ff6600;}.cls-2{fill:#333;}</style></defs><g id="Layer_1-2"><g id="Layer_1-2"><g><path class="cls-2" d="M63.94,113.6c-26.7,0-48.56-21.22-49.62-47.65H1.97c-1.1,0-1.97-.87-1.97-1.97C0,28.68,28.68,0,63.94,0c1.1,0,1.97,.87,1.97,1.97V14.36c26.47,1.03,47.65,22.88,47.65,49.62s-22.29,49.62-49.62,49.62ZM18.3,65.95c1.03,24.3,21.1,43.71,45.64,43.71s45.68-20.51,45.68-45.68-19.45-44.61-43.71-45.64v8.13c0,1.1-.87,1.97-1.97,1.97-19.6,0-35.58,15.94-35.58,35.58,0,1.1-.87,1.97-1.97,1.97h-8.13l.04-.04Zm-2.01-3.94h8.2c.99-20.24,17.28-36.49,37.47-37.47V3.98C30.45,5.01,5.01,30.45,3.98,62.01c0,0,12.31,0,12.31,0Zm47.65,29.07c-14.95,0-27.1-12.15-27.1-27.1s12.15-27.1,27.1-27.1,27.1,12.15,27.1,27.1-12.15,27.1-27.1,27.1Zm0-50.29c-12.78,0-23.15,10.37-23.15,23.15s10.37,23.15,23.15,23.15,23.15-10.37,23.15-23.15-10.37-23.15-23.15-23.15Zm0,43.47c-1.1,0-1.97-.87-1.97-1.97v-3.16c0-1.1,.87-1.97,1.97-1.97s1.97,.87,1.97,1.97v3.16c0,1.1-.87,1.97-1.97,1.97Zm12.98-5.36c-.51,0-1.03-.2-1.38-.59l-2.21-2.21c-.79-.79-.79-2.01,0-2.8,.79-.79,2.01-.79,2.8,0l2.21,2.21c.79,.79,.79,2.01,0,2.8-.39,.39-.91,.59-1.38,.59h-.04Zm-25.92,0c-.51,0-1.03-.2-1.38-.59-.79-.75-.79-2.01,0-2.8l2.21-2.21c.79-.79,2.01-.79,2.8,0,.79,.75,.79,2.01,0,2.8l-2.21,2.21c-.39,.39-.91,.59-1.38,.59h-.04Zm12.98-4.06c-6,0-10.89-4.89-10.89-10.89s4.89-10.89,10.89-10.89,10.89,4.89,10.89,10.89-4.89,10.89-10.89,10.89Zm0-17.83c-3.83,0-6.94,3.12-6.94,6.94s3.12,6.94,6.94,6.94,6.94-3.12,6.94-6.94-3.12-6.94-6.94-6.94Zm18.34,8.91h-3.16c-1.1,0-1.97-.87-1.97-1.97s.87-1.97,1.97-1.97h3.16c1.1,0,1.97,.87,1.97,1.97s-.87,1.97-1.97,1.97Zm-33.53,0h-3.16c-1.1,0-1.97-.87-1.97-1.97s.87-1.97,1.97-1.97h3.16c1.1,0,1.97,.87,1.97,1.97s-.87,1.97-1.97,1.97Zm25.92-10.73c-.51,0-1.03-.2-1.38-.59-.79-.79-.79-2.01,0-2.8l2.21-2.21c.79-.79,2.01-.79,2.8,0s.79,2.01,0,2.8l-2.21,2.21c-.39,.39-.91,.59-1.38,.59h-.04Zm-21.5,0c-.51,0-1.03-.2-1.38-.59l-2.21-2.21c-.79-.79-.79-2.01,0-2.8s2.01-.79,2.8,0l2.21,2.21c.79,.79,.79,2.01,0,2.8-.39,.39-.91,.59-1.38,.59h-.04Zm-33.8-1.18s-.36,0-.51-.08l-3.04-.83c-1.07-.28-1.7-1.38-1.38-2.41,.28-1.07,1.38-1.66,2.41-1.38l3.04,.83c1.07,.28,1.7,1.38,1.38,2.41-.24,.87-1.03,1.46-1.89,1.46Zm44.53-3.27c-1.1,0-1.97-.87-1.97-1.97v-3.16c0-1.1,.87-1.97,1.97-1.97s1.97,.87,1.97,1.97v3.16c0,1.1-.87,1.97-1.97,1.97Zm-39.92-7.85c-.32,0-.67-.08-.99-.28l-2.72-1.58c-.95-.55-1.26-1.74-.71-2.68s1.78-1.26,2.68-.71l2.72,1.58c.95,.55,1.26,1.74,.71,2.68-.36,.63-1.03,.99-1.7,.99Zm7.34-9.55c-.51,0-1.03-.2-1.38-.59l-2.21-2.21c-.79-.79-.79-2.01,0-2.8s2.01-.79,2.8,0l2.21,2.21c.79,.79,.79,2.01,0,2.8-.39,.39-.91,.59-1.38,.59h-.04Zm9.55-7.34c-.67,0-1.34-.36-1.7-.99l-1.58-2.72c-.55-.95-.24-2.13,.71-2.68,.95-.55,2.13-.24,2.68,.71l1.58,2.72c.55,.95,.24,2.13-.71,2.68-.32,.16-.63,.28-.99,.28Zm11.12-4.62c-.87,0-1.66-.59-1.89-1.46l-.83-3.04c-.28-1.07,.36-2.13,1.38-2.41,1.07-.28,2.13,.36,2.41,1.38l.83,3.04c.28,1.07-.36,2.13-1.38,2.41-.16,.04-.36,.08-.51,.08Z"/><path class="cls-1" d="M107.41,64.1c0-11.95-4.85-22.76-12.7-30.61l-8.76,8.8c5.6,5.6,9.07,13.29,9.07,21.81,0,17.04-13.85,30.89-30.89,30.89-8.52,0-16.25-3.47-21.81-9.07l-8.8,8.76c7.85,7.85,18.66,12.7,30.61,12.7,23.86,0,43.31-19.41,43.31-43.31"/></g></g></g></svg>