<?xml version="1.0" encoding="UTF-8"?>
<svg viewBox="0 0 65 66" version="1.1" xmlns="http://www.w3.org/2000/svg" xmlns:xlink="http://www.w3.org/1999/xlink">
    <title>Group 42</title>
    <g id="Chosen" stroke="none" stroke-width="1" fill="none" fill-rule="evenodd">
        <g id="v1-1_HP-fullwidth@mobile-360" transform="translate(-15.000000, -2715.000000)">
            <g id="Group-7" transform="translate(0.000000, 2695.096774)">
                <g id="Group-42" transform="translate(15.000000, 20.000000)">
                    <path d="M65,32.5 C65,50.4493437 50.4493437,65 32.5,65 C14.5506562,65 0,50.4493437 0,32.5 C0,14.5506563 14.5506562,0 32.5,0 C50.4493437,0 65,14.5506563 65,32.5" id="Fill-1" fill="#DEEEF4"></path>
                    <g id="Group" transform="translate(2.000000, 5.000000)">
                        <circle id="Oval" stroke="#0D4F78" stroke-width="1.5" fill="#FFFFFF" cx="20.5" cy="20.5" r="19.75"></circle>
                        <path d="M14.692023,21.4736842 L14.692023,19.8232936 L10.648566,19.8232936 L10.648566,19.7344264 L11.8419254,18.6108912 C12.6374983,17.8830267 13.1929182,17.322317 13.5081851,16.9287623 C13.8234521,16.5352076 14.0561995,16.1511744 14.2064273,15.7766627 C14.3566552,15.402151 14.4317691,15.0011907 14.4317691,14.5737819 C14.4317691,14.0828965 14.3090478,13.6470241 14.0636051,13.2661647 C13.8181623,12.8853053 13.473273,12.5890813 13.0289371,12.3774928 C12.5846012,12.1659043 12.0725569,12.06011 11.4928043,12.06011 C11.0527001,12.06011 10.6549137,12.1034856 10.2994449,12.1902369 C9.94397615,12.2769882 9.61601391,12.4007675 9.31555818,12.5615748 C9.01510245,12.7223821 8.63635896,12.9974472 8.17932771,13.3867701 L8.17932771,13.3867701 L9.24573396,14.6499537 C9.61389803,14.3452662 9.96725089,14.110403 10.3057926,13.9453639 C10.6443342,13.7803248 10.9934553,13.6978053 11.3531558,13.6978053 C11.6959293,13.6978053 11.9699364,13.7887884 12.1751773,13.9707545 C12.3804182,14.1527207 12.4830387,14.4299017 12.4830387,14.8022975 C12.4830387,15.051972 12.4364892,15.2931829 12.3433902,15.5259303 C12.2502913,15.7586777 12.0979475,16.011526 11.886359,16.2844752 C11.6747704,16.5574244 11.2240868,17.0472519 10.5343082,17.7539576 L10.5343082,17.7539576 L8.20471834,20.1089381 L8.20471834,21.4736842 L14.692023,21.4736842 Z M21.2047183,21.4736842 L21.2047183,19.5503444 L22.3219058,19.5503444 L22.3219058,18.0269069 L21.2047183,18.0269069 L21.2047183,12.1934108 L19.3956363,12.1934108 L15.3267887,18.1855983 L15.3267887,19.5503444 L19.2877262,19.5503444 L19.2877262,21.4736842 L21.2047183,21.4736842 Z M19.2877262,18.0269069 L17.0533512,18.0269069 L18.754523,15.4561061 C18.9745751,15.126028 19.1628889,14.7874863 19.3194644,14.4404811 L19.3194644,14.4404811 L19.3702457,14.4404811 C19.3575504,14.5208847 19.3406233,14.810761 19.3194644,15.31011 C19.2983056,15.809459 19.2877262,16.1903183 19.2877262,16.4526881 L19.2877262,16.4526881 L19.2877262,18.0269069 Z M25.476691,21.4736842 L25.476691,18.134817 C25.476691,17.3096217 25.5972965,16.712942 25.8385074,16.344778 C26.0797183,15.9766139 26.4711571,15.7925319 27.0128238,15.7925319 C27.7745426,15.7925319 28.1554019,16.3045761 28.1554019,17.3286647 L28.1554019,17.3286647 L28.1554019,21.4736842 L30.0914371,21.4736842 L30.0914371,16.8462428 C30.0914371,16.0083522 29.8756168,15.365123 29.4439762,14.9165553 C29.0123355,14.4679876 28.3796858,14.2437037 27.5460269,14.2437037 C26.6065738,14.2437037 25.9210269,14.590709 25.4893863,15.2847194 L25.4893863,15.2847194 L25.3878238,15.2847194 L25.4322574,14.7134303 C25.4618798,14.1336777 25.476691,13.7655136 25.476691,13.6089381 L25.476691,13.6089381 L25.476691,11.5967311 L23.5406558,11.5967311 L23.5406558,21.4736842 L25.476691,21.4736842 Z" id="24h" fill="#0D4F78" fill-rule="nonzero"></path>
                        <g id="car-copy-6" transform="translate(10.459625, 24.226703)">
                            <polygon id="Path-2" fill="#FFFFFF" points="8.87008667 7.94407895 12.5 10.2138158 37.5 10.2138158 41.171764 7.94407895"></polygon>
                            <path d="M4.54545455,24.9671053 L4.54545455,29.5065789 C4.54545455,30.1330263 5.05454545,30.6414474 5.68181818,30.6414474 L13.6363636,30.6414474 C14.2636364,30.6414474 14.7727273,30.1330263 14.7727273,29.5065789 L14.7727273,26.1019737" id="Stroke-5" stroke="#0D4F78" stroke-width="1.5" fill="#FFFFFF" stroke-linejoin="round"></path>
                            <path d="M45.4545455,24.9671053 L45.4545455,29.5065789 C45.4545455,30.1330263 44.9465909,30.6414474 44.3181818,30.6414474 L36.3636364,30.6414474 C35.7352273,30.6414474 35.2272727,30.1330263 35.2272727,29.5065789 L35.2272727,26.1019737" id="Stroke-13" stroke="#0D4F78" stroke-width="1.5" fill="#FFFFFF" stroke-linejoin="round"></path>
                            <path d="M25,26.1019737 L43.1818182,26.1019737 C45.0647727,26.1019737 46.5909091,24.5778454 46.5909091,22.6973684 L46.5909091,16.8153454 C46.5909091,15.4705263 46.1920455,14.1563487 45.4454545,13.0373684 L44.3181818,11.3486842 L48.8636364,10.2138158 C49.4920455,10.2138158 50,9.70539474 50,9.07894737 L50,6.80921053 C50,6.18276316 49.4920455,5.67434211 48.8636364,5.67434211 L43.1818182,5.67434211 L40.9090909,9.07894737 L37.5,10.2138158 L25,10.2138158" id="Stroke-7" stroke="#0D4F78" stroke-width="1.5" fill="#FFFFFF" stroke-linecap="round" stroke-linejoin="round"></path>
                            <path d="M25,26.1019737 L6.81818182,26.1019737 C4.93522727,26.1019737 3.40909091,24.5778454 3.40909091,22.6973684 L3.40909091,16.8153454 C3.40909091,15.4705263 3.80795455,14.1563487 4.55454545,13.0373684 L5.68181818,11.3486842 L1.13636364,10.2138158 C0.509090909,10.2138158 0,9.70539474 0,9.07894737 L0,6.80921053 C0,6.18276316 0.509090909,5.67434211 1.13636364,5.67434211 L6.81818182,5.67434211 L9.09090909,9.07894737 L12.5,10.2138158 L25,10.2138158" id="Stroke-1" stroke="#0D4F78" stroke-width="1.5" fill="#FFFFFF" stroke-linecap="round" stroke-linejoin="round"></path>
                            <path d="M6.81818182,14.7532895 L7.42727273,15.3615789 C8.49204545,16.4249507 9.9375,17.0230263 11.4443182,17.0230263 L14.7727273,17.0230263" id="Stroke-3" stroke="#0D4F78" stroke-width="1.5" stroke-linecap="round" stroke-linejoin="round"></path>
                            <path d="M42.0454545,7.94407895 C42.0454545,7.94407895 39.1590909,1.75337171 38.6363636,1.13486842 C38.1136364,0.516365132 37.1590909,0 36.3636364,0 L13.6363636,0 C12.8409091,0 11.8852273,0.516365132 11.3636364,1.13486842 C10.8420455,1.75337171 7.95454545,7.94407895 7.95454545,7.94407895" id="Stroke-9" stroke="#0D4F78" stroke-width="1.5" fill="#FFFFFF"></path>
                            <path d="M43.1818182,14.7532895 L42.5727273,15.3615789 C41.5068182,16.4249507 40.0625,17.0230263 38.5556818,17.0230263 L35.2272727,17.0230263" id="Stroke-11" stroke="#0D4F78" stroke-width="1.5" stroke-linecap="round" stroke-linejoin="round"></path>
                        </g>
                    </g>
                </g>
            </g>
        </g>
    </g>
</svg>