<svg viewBox="0 0 69 67" xmlns="http://www.w3.org/2000/svg">
    <g transform="translate(0 1.097)" fill="none" fill-rule="evenodd">
        <circle fill="#DEEEF4" cx="30.195" cy="34.805" r="30.195"/>
        <g fill="#FFF" stroke="#0D4F78" stroke-linejoin="round" stroke-width="1.5">
            <path d="M6.144 51.067v-34.8c0-1.423 1.114-2.577 2.487-2.577h44.773c1.373 0 2.488 1.154 2.488 2.577v34.8"/>
            <path d="M54.648 55.975H7.388c-2.748 0-4.975-.984-4.975-3.731v-2.487h21.143L26.043 51h9.95l2.487-1.243h21.143v2.487c0 2.747-2.228 3.731-4.975 3.731z"/>
        </g>
        <path fill="#FFF" d="m18.118 27.737 2.758 1.725h19.002l2.79-1.725z"/>
        <path d="M14.83 40.675v3.45c0 .476.388.863.864.863h6.046a.863.863 0 0 0 .864-.863v-2.587M45.923 40.675v3.45a.863.863 0 0 1-.863.863h-6.046a.863.863 0 0 1-.864-.863v-2.587" stroke="#0D4F78" stroke-width="1.5" fill="#FFF" stroke-linejoin="round"/>
        <path d="M30.377 41.538h13.819a2.59 2.59 0 0 0 2.591-2.588v-4.47a5.173 5.173 0 0 0-.87-2.872l-.857-1.284 3.454-.862a.863.863 0 0 0 .864-.863v-1.725a.863.863 0 0 0-.864-.862h-4.318l-1.727 2.587-2.591.863h-9.501M30.377 41.538H16.558a2.59 2.59 0 0 1-2.591-2.588v-4.47c0-1.023.303-2.022.87-2.872l.857-1.284-3.454-.862a.863.863 0 0 1-.864-.863v-1.725c0-.476.387-.862.864-.862h4.318l1.727 2.587 2.591.863h9.501" stroke="#0D4F78" stroke-width="1.5" fill="#FFF" stroke-linecap="round" stroke-linejoin="round"/>
        <path d="m16.558 32.912.463.462a4.321 4.321 0 0 0 3.053 1.263h2.53" stroke="#0D4F78" stroke-width="1.5" stroke-linecap="round" stroke-linejoin="round"/>
        <path d="M43.332 27.737s-2.193-4.705-2.59-5.175c-.398-.47-1.124-.863-1.728-.863H21.74c-.604 0-1.33.392-1.727.863-.397.47-2.591 5.175-2.591 5.175" stroke="#0D4F78" stroke-width="1.5" fill="#FFF"/>
        <path d="m44.196 32.912-.463.462a4.323 4.323 0 0 1-3.053 1.263h-2.53" stroke="#0D4F78" stroke-width="1.5" stroke-linecap="round" stroke-linejoin="round"/>
        <g>
            <g stroke="#0D4F78" stroke-width="1.2">
                <path d="m39.358 16.994-.157-.86 3.032-5.251c.241-.418.516-.793.983-.918l14.66-3.95c.967-.257 1.931.3 2.192 1.266l2.82 10.495a1.803 1.803 0 0 1-1.285 2.21l-14.74 3.939a1.828 1.828 0 0 1-1.38-.2l-5.271-3.042-.225-1.092" fill="#FFF"/>
                <path stroke-linecap="round" stroke-linejoin="round" d="m40.984 16.37.822 3.045M41.34 17.57a3.497 3.497 0 0 0-3.379 1.73c-.966 1.673-.297 4.995 2.276 5.202"/>
            </g>
            <path d="M52.249 10.484c-1.404 0-2.28.886-2.627 2.659h3.366v.85H49.53l-.013.377v.422l.013.297h3.056v.851h-2.95c.162.792.467 1.404.914 1.838.446.433 1.043.65 1.791.65.687 0 1.367-.146 2.04-.436v.99a5.086 5.086 0 0 1-2.092.429c-1.043 0-1.882-.296-2.518-.888-.636-.591-1.055-1.452-1.258-2.583h-1.095v-.85h1.003l-.013-.278v-.29l.013-.528h-1.003v-.851H48.5c.172-1.148.579-2.043 1.221-2.685.643-.643 1.485-.964 2.528-.964.884 0 1.69.214 2.415.64l-.468.917c-.73-.378-1.38-.567-1.947-.567z" fill="#0D4F78"/>
        </g>
    </g>
</svg>
