<svg viewBox="0 0 65 66" xmlns="http://www.w3.org/2000/svg">
    <g fill="none" fill-rule="evenodd">
        <path d="M65 32.597c0 17.95-14.55 32.5-32.5 32.5S0 50.547 0 32.597 14.55.097 32.5.097 65 14.647 65 32.597" fill="#DEEEF4"/>
        <path stroke="#0D4F78" stroke-width="1.5" fill="#FFF" d="M40.722 36.819h15.834v24.278H8V36.819h11.611"/>
        <path d="M19.611 41.041H15.39a3.166 3.166 0 0 1-3.167 3.167v9.5a3.166 3.166 0 0 1 3.167 3.167h33.778c0-1.75 1.055-3.167 3.166-3.167v-9.5a3.166 3.166 0 0 1-3.166-3.167h-8.445" stroke="#0D4F78" stroke-width="1.5"/>
        <path stroke="#0D4F78" stroke-width="1.5" stroke-linejoin="round" d="M44.945 48.43h-2.111M22.778 48.43h-2.111"/>
        <path fill="#FFF" d="m24.938 13.95-1.573 2.365.336 19.508 3.741 2.58h7.544l-3.302-21.517z"/>
        <path d="M37.16 46.321c.255.647.396 1.362.395 2.114 0 2.914-2.13 5.276-4.754 5.274-2.624 0-4.75-2.364-4.748-5.279 0-.751.142-1.465.397-2.11" stroke="#0D4F78" stroke-width="1.5" stroke-linejoin="round"/>
        <path d="M34.389 39.986a2.11 2.11 0 1 0 4.222 0V29.699c0-2.834 1.464-3.915 1.464-3.915s.657.273 1.615 2.678c1.546 3.881 4.76 3.214 5.488 2.408.726-.806.176-2.027-1.661-4.915-1.254-1.968-1.951-6.402-3.947-8.155-1.996-1.754-2.959-2.635-2.959-3.745v-2.57H23.833" stroke="#0D4F78" stroke-width="1.5" fill="#FFF" stroke-linejoin="round"/>
        <path d="M30.167 30.486v13.722a2.11 2.11 0 1 0 4.222 0V30.486" stroke="#0D4F78" stroke-width="1.5" stroke-linejoin="round"/>
        <path d="M25.944 36.819v4.222a2.11 2.11 0 1 0 4.223 0" stroke="#0D4F78" stroke-width="1.5" stroke-linejoin="round"/>
        <path d="M23.833 11.486v2.824c0 1.608-2.11 2.413-2.11 5.649v16.86a2.11 2.11 0 1 0 4.221 0v-6.333" stroke="#0D4F78" stroke-width="1.5" fill="#FFF" stroke-linejoin="round"/>
        <path stroke="#0D4F78" stroke-width="1.5" fill="#FFF" d="M42.084 12.847H21.417v-8h20.667z"/>
    </g>
</svg>
