<?xml version="1.0" encoding="utf-8"?>
<!-- Generator: Adobe Illustrator 26.1.0, SVG Export Plug-In . SVG Version: 6.00 Build 0)  -->
<svg version="1.1" id="Layer_1" xmlns="http://www.w3.org/2000/svg" xmlns:xlink="http://www.w3.org/1999/xlink" x="0px" y="0px"
	 viewBox="0 0 35 36" style="enable-background:new 0 0 35 36;" xml:space="preserve">
<style type="text/css">
	.st0{clip-path:url(#SVGID_00000007392251149485445980000002241474540626312323_);}
	.st1{fill:#ff6600;}
</style>
<g>
	<defs>
		<rect id="SVGID_1_" y="0.9" width="35" height="35"/>
	</defs>
	<clipPath id="SVGID_00000103229876614471845930000012238999281229611146_">
		<use xlink:href="#SVGID_1_"  style="overflow:visible;"/>
	</clipPath>
	<g style="clip-path:url(#SVGID_00000103229876614471845930000012238999281229611146_);">
		<path class="st1" d="M17.5,35.9c-2.4,0-4.6-1-6.1-2.9c-2.2,0.3-4.6-0.6-6.2-2.3c-1.7-1.7-2.5-4-2.3-6.4C1,23,0,20.8,0,18.4
			c0-2.4,1-4.6,2.9-6.1C2.6,10,3.4,7.7,5.1,6c1.7-1.7,4-2.5,6.4-2.3c1.4-1.8,3.6-2.8,6-2.8c2.4,0,4.6,1,6.1,2.9
			c2.2-0.3,4.6,0.6,6.2,2.3c1.7,1.7,2.5,4,2.3,6.4c1.8,1.4,2.8,3.6,2.8,6c0,2.4-1,4.6-2.9,6.1c0.3,2.2-0.6,4.6-2.3,6.2
			c-1.7,1.7-4,2.5-6.4,2.3C22.1,34.9,19.9,35.9,17.5,35.9z M11.5,30.2c0.8,0,1.6,0.4,2.1,1c1,1.2,2.4,1.8,3.9,1.8s2.9-0.7,3.9-1.8
			c0.6-0.7,1.4-1.1,2.4-1c1.5,0.1,3-0.4,4-1.5c1.1-1.1,1.6-2.5,1.5-4c-0.1-0.9,0.3-1.8,1-2.4c1.2-1,1.8-2.4,1.8-3.9
			s-0.7-2.9-1.8-3.9c-0.7-0.6-1.1-1.4-1-2.4c0.1-1.5-0.4-3-1.5-4c-1.1-1.1-2.5-1.6-4-1.5c-0.9,0.1-1.8-0.3-2.4-1
			c-1-1.2-2.4-1.8-3.9-1.8s-2.9,0.7-3.9,1.8c-0.6,0.7-1.4,1-2.4,1c-1.5-0.1-3,0.4-4,1.5c-1.1,1.1-1.6,2.5-1.5,4
			c0.1,0.9-0.3,1.8-1,2.4c-1.2,1-1.8,2.4-1.8,3.9s0.7,2.9,1.8,3.9c0.7,0.6,1.1,1.4,1,2.4c-0.1,1.5,0.4,3,1.5,4s2.6,1.6,4,1.5
			C11.3,30.2,11.4,30.2,11.5,30.2z M18.7,23l6.9-6.7c0.6-0.6,0.6-1.5,0-2.1c-0.6-0.6-1.5-0.6-2.1,0l-6.9,6.7c-0.6,0.6-1.5,0.6-2.1,0
			l-3.3-3.1c-0.6-0.5-1.5-0.5-2.1,0.1c-0.5,0.6-0.5,1.5,0.1,2.1l3.3,3.1c0.9,0.9,2,1.3,3.1,1.3C16.7,24.2,17.8,23.8,18.7,23L18.7,23
			z"/>
	</g>
</g>
</svg>
