<?xml version="1.0" encoding="utf-8"?>
<!-- Generator: Adobe Illustrator 26.1.0, SVG Export Plug-In . SVG Version: 6.00 Build 0)  -->
<svg version="1.1" id="Layer_1" xmlns="http://www.w3.org/2000/svg" xmlns:xlink="http://www.w3.org/1999/xlink" x="0px" y="0px"
	 viewBox="0 0 36 36" style="enable-background:new 0 0 36 36;" xml:space="preserve">
<style type="text/css">
	.st0{clip-path:url(#SVGID_00000006687845617495831430000008658125843181729983_);}
	.st1{fill:#ff6600;}
</style>
<g>
	<defs>
		<rect id="SVGID_1_" x="0.3" y="0.9" width="35" height="35"/>
	</defs>
	<clipPath id="SVGID_00000152951954320145170550000008128579053257749432_">
		<use xlink:href="#SVGID_1_"  style="overflow:visible;"/>
	</clipPath>
	<g style="clip-path:url(#SVGID_00000152951954320145170550000008128579053257749432_);">
		<path class="st1" d="M12.7,14.8c0,0.8,0.2,1.6,0.5,2.2c-0.7,0.9-1.2,2.1-1.2,3.3c-1.4-1.4-2.2-3.4-2.2-5.5c0-5,4.6-8.9,9.7-7.8
			c3,0.6,5.5,3.1,6.1,6.1c0.2,0.9,0.2,1.8,0.1,2.7c-0.1,0.7-0.7,1.3-1.5,1.3h-0.1c-0.9,0-1.5-0.8-1.4-1.6c0.1-0.6,0-1.2-0.1-1.8
			c-0.4-1.8-1.9-3.3-3.8-3.7C15.7,9,12.7,11.6,12.7,14.8L12.7,14.8z M7.1,12.9c0.4-2.3,1.5-4.4,3.3-6.1c2.2-2.1,5.1-3.1,8.2-2.9
			c5.8,0.4,10.3,5.4,10.2,11.5c0,2.5-2.1,4.5-4.7,4.5h-3.5c-0.4-1.2-1.5-2.1-2.8-2.1c-1.6,0-2.9,1.3-2.9,2.9c0,1.6,1.3,2.9,2.9,2.9
			c0.8,0,1.5-0.3,2-0.8h4.3c4.1,0,7.5-3.3,7.6-7.4c0.1-7.6-5.6-14-12.9-14.5C14.9,0.7,11.2,2,8.4,4.6c-2.2,2-3.6,4.8-4.2,7.7
			C4,13.2,4.7,14,5.6,14C6.3,14,6.9,13.5,7.1,12.9L7.1,12.9z M17.8,25.7C12.4,25.7,7.8,29,6.2,34c-0.2,0.8,0.2,1.6,1,1.8
			c0.8,0.2,1.6-0.2,1.8-1c1.2-3.7,4.8-6.3,8.8-6.3c4,0,7.7,2.6,8.8,6.3c0.2,0.6,0.8,1,1.4,1c0.1,0,0.3,0,0.4-0.1
			c0.8-0.2,1.2-1.1,1-1.8C27.9,29,23.2,25.7,17.8,25.7L17.8,25.7z"/>
	</g>
</g>
</svg>
