<?xml version="1.0" encoding="utf-8"?>
<!-- Generator: Adobe Illustrator 26.1.0, SVG Export Plug-In . SVG Version: 6.00 Build 0)  -->
<svg version="1.1" id="Layer_1" xmlns="http://www.w3.org/2000/svg" xmlns:xlink="http://www.w3.org/1999/xlink" x="0px" y="0px"
	 viewBox="0 0 36 36" style="enable-background:new 0 0 36 36;" xml:space="preserve">
<style type="text/css">
	.st0{clip-path:url(#SVGID_00000044137050068830697110000008268486914561472650_);}
	.st1{fill:#ff6600;}
</style>
<g>
	<defs>
		<rect id="SVGID_1_" x="0.7" y="0.9" width="35" height="35"/>
	</defs>
	<clipPath id="SVGID_00000164483548980467887480000007766819231292521888_">
		<use xlink:href="#SVGID_1_"  style="overflow:visible;"/>
	</clipPath>
	<g style="clip-path:url(#SVGID_00000164483548980467887480000007766819231292521888_);">
		<path class="st1" d="M32.8,14.3v-3.2c0-4.8-3.9-8.8-8.8-8.8H12.3c-4.8,0-8.8,3.9-8.8,8.8v3.2c-1.7,0.6-2.9,2.2-2.9,4.1v5.8
			c0,2.4,1.1,4.5,2.9,5.8v0V33c0,0.8,0.7,1.5,1.5,1.5s1.5-0.7,1.5-1.5v-1.6c0.5,0.1,1,0.1,1.5,0.1h20.4c0.5,0,1-0.1,1.5-0.1V33
			c0,0.8,0.7,1.5,1.5,1.5c0.8,0,1.5-0.7,1.5-1.5v-2.9v0c1.8-1.3,2.9-3.4,2.9-5.8v-5.8C35.7,16.5,34.4,14.9,32.8,14.3z M12.3,5.3H24
			c3.2,0,5.8,2.6,5.8,5.8v3.2c-1.7,0.6-2.9,2.2-2.9,4.1v2.9H9.4v-2.9c0-1.9-1.2-3.5-2.9-4.1v-3.2C6.5,7.9,9.1,5.3,12.3,5.3z
			 M32.8,24.2c0,2.4-2,4.4-4.4,4.4H8c-2.4,0-4.4-2-4.4-4.4v-5.8c0-0.8,0.7-1.5,1.5-1.5c0.8,0,1.5,0.7,1.5,1.5v4.4
			c0,0.8,0.7,1.5,1.5,1.5h20.4c0.8,0,1.5-0.7,1.5-1.5v-4.4c0-0.8,0.7-1.5,1.5-1.5c0.8,0,1.5,0.7,1.5,1.5V24.2z"/>
	</g>
</g>
</svg>
